<mxfile host="app.diagrams.net" modified="2024-05-31T05:12:27.493Z" agent="Mozilla/5.0 (Macintosh; Intel Mac OS X 10.15; rv:126.0) Gecko/20100101 Firefox/126.0" etag="EkZcs3_XAv8mV7P5jVav" version="24.4.10" type="github">
  <diagram name="Page-1" id="SB-1gOZir6gWTsnCEMYt">
    <mxGraphModel dx="1026" dy="688" grid="1" gridSize="10" guides="1" tooltips="1" connect="1" arrows="1" fold="1" page="1" pageScale="1" pageWidth="850" pageHeight="1100" math="0" shadow="0">
      <root>
        <mxCell id="0" />
        <mxCell id="1" parent="0" />
      </root>
    </mxGraphModel>
  </diagram>
</mxfile>
